<svg width="21" height="21" viewBox="0 0 21 21" fill="none" xmlns="http://www.w3.org/2000/svg">
<path d="M10.5 0C16.0228 0 20.5 4.47715 20.5 10C20.5 15.5228 16.0228 20 10.5 20C8.8596 20 7.27516 19.6039 5.85578 18.8583L1.56538 19.9753C1.1111 20.0937 0.6469 19.8213 0.52858 19.367C0.49199 19.2266 0.49198 19.0791 0.52855 18.9386L1.6449 14.6502C0.8972 13.2294 0.5 11.6428 0.5 10C0.5 4.47715 4.97715 0 10.5 0ZM11.7517 11H7.25L7.14823 11.0068C6.78215 11.0565 6.5 11.3703 6.5 11.75C6.5 12.1297 6.78215 12.4435 7.14823 12.4932L7.25 12.5H11.7517L11.8535 12.4932C12.2196 12.4435 12.5017 12.1297 12.5017 11.75C12.5017 11.3703 12.2196 11.0565 11.8535 11.0068L11.7517 11ZM13.75 7.5H7.25L7.14823 7.50685C6.78215 7.55651 6.5 7.8703 6.5 8.25C6.5 8.6297 6.78215 8.9435 7.14823 8.9932L7.25 9H13.75L13.8518 8.9932C14.2178 8.9435 14.5 8.6297 14.5 8.25C14.5 7.8703 14.2178 7.55651 13.8518 7.50685L13.75 7.5Z" fill="#5E5E62"/>
</svg>
